<svg width="109" height="90" viewBox="0 0 109 90" fill="none" xmlns="http://www.w3.org/2000/svg">
<rect width="77.8378" height="77.8378" rx="15" transform="matrix(1 0 0 -1 9.5 77.8379)" fill="#E0D4C4"/>
<g filter="url(#filter0_b_3_174)">
<rect width="77.8378" height="77.8378" rx="15" transform="matrix(1 0 0 -1 21.6621 90)" fill="#EEEEEE" fill-opacity="0.61"/>
<rect x="0.5" y="-0.5" width="76.8378" height="76.8378" rx="14.5" transform="matrix(1 0 0 -1 21.6621 89)" stroke="white"/>
</g>
<g clip-path="url(#clip0_3_174)">
<path d="M53.3337 45.1251C53.3337 46.1141 52.531 46.9168 51.542 46.9168C50.553 46.9168 49.7504 46.1141 49.7504 45.1251C49.7504 44.1361 50.553 43.3335 51.542 43.3335C52.531 43.3335 53.3337 44.1361 53.3337 45.1251ZM82.0004 63.9376V51.1362C82.0004 45.0517 79.5064 39.1535 75.1562 34.9502C70.9942 30.928 65.5618 28.7941 59.8357 29.0162C48.5123 29.4032 39.1688 38.9295 39.004 50.2529C38.9251 55.8124 41.0339 61.0584 44.9433 65.0252C49.3759 69.5223 55.6217 72.0001 62.5285 72.0001H73.9361C78.3812 72.0001 82.0004 68.3828 82.0004 63.9376ZM73.911 36.2385C77.9118 40.1067 80.2087 45.5354 80.2087 51.1362V63.9376C80.2087 67.3955 77.3958 70.2085 73.9379 70.2085H62.5303C56.1072 70.2085 50.3148 67.9223 46.2208 63.7674C42.65 60.1447 40.7222 55.3537 40.7956 50.2797C40.9461 39.897 49.5139 31.1609 59.8966 30.8061C60.1205 30.799 60.3409 30.7954 60.5631 30.7954C65.5457 30.7954 70.265 32.7142 73.9128 36.2402L73.911 36.2385ZM48.593 59.1969L58.0763 49.7136C58.4256 49.3642 58.9936 49.3642 59.343 49.7136L63.9762 54.3468C65.0243 55.395 66.7282 55.395 67.7763 54.3468L75.468 46.6552C75.8173 46.3058 75.8173 45.7379 75.468 45.3885C75.1186 45.0391 74.5506 45.0391 74.2013 45.3885L66.5096 53.0801C66.1603 53.4295 65.5923 53.4295 65.2429 53.0801L60.6097 48.4469C59.5615 47.3987 57.8577 47.3987 56.8095 48.4469L47.3263 57.9302C46.9769 58.2795 46.9769 58.8475 47.3263 59.1969C47.5018 59.3725 47.7312 59.4585 47.9605 59.4585C48.1898 59.4585 48.4174 59.3707 48.593 59.1969Z" fill="#1D1E1C"/>
</g>
<defs>
<filter id="filter0_b_3_174" x="13.6621" y="4.16211" width="93.8379" height="93.8379" filterUnits="userSpaceOnUse" color-interpolation-filters="sRGB">
<feFlood flood-opacity="0" result="BackgroundImageFix"/>
<feGaussianBlur in="BackgroundImageFix" stdDeviation="4"/>
<feComposite in2="SourceAlpha" operator="in" result="effect1_backgroundBlur_3_174"/>
<feBlend mode="normal" in="SourceGraphic" in2="effect1_backgroundBlur_3_174" result="shape"/>
</filter>
<clipPath id="clip0_3_174">
<rect width="43" height="43" fill="white" transform="translate(39 29)"/>
</clipPath>
</defs>
</svg>
