<svg width="109" height="90" viewBox="0 0 109 90" fill="none" xmlns="http://www.w3.org/2000/svg">
<rect width="77.8378" height="77.8378" rx="15" transform="matrix(1 0 0 -1 9.5 77.8379)" fill="#E0D4C4"/>
<g filter="url(#filter0_b_3_195)">
<rect width="77.8378" height="77.8378" rx="15" transform="matrix(1 0 0 -1 21.6622 90)" fill="#EEEEEE" fill-opacity="0.61"/>
<rect x="0.5" y="-0.5" width="76.8378" height="76.8378" rx="14.5" transform="matrix(1 0 0 -1 21.6622 89)" stroke="white"/>
</g>
<path d="M40.663 66.6534L41.629 66.9119L40.663 66.6534ZM41.3191 64.2013L42.2851 64.4598L41.3191 64.2013ZM46.2988 69.181L46.0403 68.215L46.2988 69.181ZM43.8467 69.8371L43.5882 68.8711H43.5882L43.8467 69.8371ZM41.0604 61.9006L41.9624 61.4688H41.9624L41.0604 61.9006ZM48.5995 69.4397L49.0313 68.5378L49.0313 68.5378L48.5995 69.4397ZM70.5 55.0001C70.5 63.2844 63.7843 70.0001 55.5 70.0001V72.0001C64.8888 72.0001 72.5 64.389 72.5 55.0001H70.5ZM40.5 55.0001C40.5 46.7159 47.2157 40.0001 55.5 40.0001V38.0001C46.1112 38.0001 38.5 45.6113 38.5 55.0001H40.5ZM55.5 40.0001C63.7843 40.0001 70.5 46.7159 70.5 55.0001H72.5C72.5 45.6113 64.8888 38.0001 55.5 38.0001V40.0001ZM41.629 66.9119L42.2851 64.4598L40.3531 63.9429L39.697 66.3949L41.629 66.9119ZM46.0403 68.215L43.5882 68.8711L44.1052 70.8031L46.5572 70.147L46.0403 68.215ZM41.9624 61.4688C41.0253 59.5114 40.5 57.3185 40.5 55.0001H38.5C38.5 57.6237 39.095 60.1112 40.1584 62.3324L41.9624 61.4688ZM55.5 70.0001C53.1816 70.0001 50.9887 69.4748 49.0313 68.5378L48.1677 70.3417C50.3889 71.4051 52.8764 72.0001 55.5 72.0001V70.0001ZM46.5572 70.147C47.0581 70.013 47.6265 70.0826 48.1677 70.3417L49.0313 68.5378C48.1364 68.1093 47.0776 67.9374 46.0403 68.215L46.5572 70.147ZM42.2851 64.4598C42.5627 63.4225 42.3908 62.3638 41.9624 61.4688L40.1584 62.3324C40.4175 62.8736 40.4871 63.442 40.3531 63.9429L42.2851 64.4598ZM39.697 66.3949C38.981 69.0709 41.4292 71.5191 44.1052 70.8031L43.5882 68.8711C42.3989 69.1893 41.3108 68.1012 41.629 66.9119L39.697 66.3949Z" fill="#1D1E1C"/>
<path d="M78.337 52.6533L79.303 52.3948L78.337 52.6533ZM78.0822 51.7012L77.1162 51.9597V51.9597L78.0822 51.7012ZM74.2012 55.5822L74.4597 54.6162H74.4597L74.2012 55.5822ZM75.1533 55.837L74.8948 56.803L75.1533 55.837ZM78.331 49.3954L79.2406 49.8109L78.331 49.3954ZM71.8955 55.831L71.48 54.9214L71.8955 55.831ZM80.5 44C80.5 36.268 74.232 30 66.5 30V32C73.1274 32 78.5 37.3726 78.5 44H80.5ZM79.303 52.3948L79.0483 51.4428L77.1162 51.9597L77.371 52.9118L79.303 52.3948ZM73.9428 56.5483L74.8948 56.803L75.4118 54.871L74.4597 54.6162L73.9428 56.5483ZM79.2406 49.8109C80.0496 48.0397 80.5 46.0711 80.5 44H78.5C78.5 45.7786 78.1137 47.4643 77.4214 48.98L79.2406 49.8109ZM71.8849 56.9266C72.0281 56.8669 72.1702 56.8049 72.3109 56.7405L71.48 54.9214C71.3594 54.9764 71.2378 55.0296 71.1151 55.0807L71.8849 56.9266ZM66.5 30C60.6782 30 55.6886 33.5533 53.5773 38.6056L55.4227 39.3768C57.2339 35.0426 61.5128 32 66.5 32V30ZM74.4597 54.6162C73.4202 54.3381 72.3676 54.5159 71.48 54.9214L72.3109 56.7405C72.8716 56.4844 73.444 56.4148 73.9428 56.5483L74.4597 54.6162ZM79.0483 51.4428C78.9148 50.944 78.9844 50.3716 79.2406 49.8109L77.4214 48.98C77.0159 49.8676 76.8381 50.9202 77.1162 51.9597L79.0483 51.4428ZM77.371 52.9118C77.6892 54.1011 76.6011 55.1892 75.4118 54.871L74.8948 56.803C77.5708 57.519 80.019 55.0708 79.303 52.3948L77.371 52.9118Z" fill="#1D1E1C"/>
<defs>
<filter id="filter0_b_3_195" x="13.6622" y="4.16211" width="93.8378" height="93.8379" filterUnits="userSpaceOnUse" color-interpolation-filters="sRGB">
<feFlood flood-opacity="0" result="BackgroundImageFix"/>
<feGaussianBlur in="BackgroundImageFix" stdDeviation="4"/>
<feComposite in2="SourceAlpha" operator="in" result="effect1_backgroundBlur_3_195"/>
<feBlend mode="normal" in="SourceGraphic" in2="effect1_backgroundBlur_3_195" result="shape"/>
</filter>
</defs>
</svg>
