<svg width="109" height="90" viewBox="0 0 109 90" fill="none" xmlns="http://www.w3.org/2000/svg">
<rect width="77.8378" height="77.8378" rx="15" transform="matrix(1 0 0 -1 9.5 77.8379)" fill="#E0D4C4"/>
<g filter="url(#filter0_b_3_183)">
<rect width="77.8378" height="77.8378" rx="15" transform="matrix(1 0 0 -1 21.6621 90)" fill="#EEEEEE" fill-opacity="0.61"/>
<rect x="0.5" y="-0.5" width="76.8378" height="76.8378" rx="14.5" transform="matrix(1 0 0 -1 21.6621 89)" stroke="white"/>
</g>
<path d="M71.7243 52.5646L70.9911 51.8846L71.7243 52.5646ZM58.6966 39.5369L59.3766 40.2701L58.6966 39.5369ZM77.91 36.8368L78.9015 36.9665L77.91 36.8368ZM74.4244 33.3512L74.5541 34.3428L74.4244 33.3512ZM49.9671 52.273L50.865 52.7132L49.9671 52.273ZM58.9882 61.2941L58.548 60.3962L58.9882 61.2941ZM52.8899 47.9491C52.4993 47.5586 51.8662 47.5586 51.4757 47.9491C51.0851 48.3397 51.0851 48.9728 51.4757 49.3633L52.8899 47.9491ZM61.8979 59.7856C62.2884 60.1761 62.9216 60.1761 63.3121 59.7856C63.7026 59.395 63.7026 58.7619 63.3121 58.3713L61.8979 59.7856ZM49.6329 63.0425C50.0235 62.652 50.0234 62.0188 49.6329 61.6283C49.2424 61.2378 48.6092 61.2378 48.2187 61.6283L49.6329 63.0425ZM43.0076 66.8394C42.6171 67.2299 42.6171 67.8631 43.0076 68.2536C43.3981 68.6441 44.0313 68.6441 44.4218 68.2536L43.0076 66.8394ZM45.7246 59.1342C46.1151 58.7436 46.1151 58.1105 45.7246 57.72C45.3341 57.3294 44.7009 57.3294 44.3104 57.72L45.7246 59.1342ZM41.7048 60.3255C41.3143 60.716 41.3143 61.3492 41.7048 61.7397C42.0954 62.1302 42.7285 62.1302 43.119 61.7397L41.7048 60.3255ZM53.5413 66.9508C53.9318 66.5603 53.9318 65.9271 53.5413 65.5366C53.1507 65.1461 52.5176 65.1461 52.127 65.5366L53.5413 66.9508ZM49.5215 68.1422C49.131 68.5327 49.131 69.1659 49.5215 69.5564C49.912 69.9469 50.5452 69.9469 50.9357 69.5564L49.5215 68.1422ZM57.5241 67.8071L58.5141 67.6656L57.5241 67.8071ZM67.0344 61.4235L68.0244 61.282L67.0344 61.4235ZM43.4541 53.7371L43.5955 52.7472L43.5955 52.7472L43.4541 53.7371ZM49.8377 44.2268L49.6963 45.2168L49.6963 45.2168L49.8377 44.2268ZM55.6958 59.8746L51.3866 55.5655L49.9724 56.9797L54.2815 61.2888L55.6958 59.8746ZM70.9911 51.8846C67.4506 55.702 61.7296 58.8365 58.548 60.3962L59.4284 62.192C62.6307 60.6222 68.6463 57.3539 72.4575 53.2447L70.9911 51.8846ZM50.865 52.7132C52.4247 49.5316 55.5592 43.8106 59.3766 40.2701L58.0166 38.8037C53.9073 42.6149 50.6391 48.6306 49.0692 51.8328L50.865 52.7132ZM76.9184 36.7071C76.3574 40.9967 74.8599 47.7134 70.9911 51.8846L72.4575 53.2447C76.7837 48.5802 78.3343 41.3037 78.9015 36.9665L76.9184 36.7071ZM59.3766 40.2701C63.5479 36.4014 70.2645 34.9038 74.5541 34.3428L74.2947 32.3597C69.9576 32.9269 62.6811 34.4775 58.0166 38.8037L59.3766 40.2701ZM78.9015 36.9665C79.2579 34.2417 77.0195 32.0033 74.2947 32.3597L74.5541 34.3428C75.9763 34.1568 77.1044 35.2849 76.9184 36.7071L78.9015 36.9665ZM51.3866 55.5655C50.6094 54.7883 50.4048 53.6518 50.865 52.7132L49.0692 51.8328C48.2092 53.587 48.6291 55.6363 49.9724 56.9797L51.3866 55.5655ZM54.2815 61.2888C55.6249 62.6322 57.6743 63.052 59.4284 62.192L58.548 60.3962C57.6094 60.8564 56.473 60.6518 55.6958 59.8746L54.2815 61.2888ZM51.4757 49.3633L61.8979 59.7856L63.3121 58.3713L52.8899 47.9491L51.4757 49.3633ZM48.2187 61.6283L43.0076 66.8394L44.4218 68.2536L49.6329 63.0425L48.2187 61.6283ZM44.3104 57.72L41.7048 60.3255L43.119 61.7397L45.7246 59.1342L44.3104 57.72ZM52.127 65.5366L49.5215 68.1422L50.9357 69.5564L53.5413 66.9508L52.127 65.5366ZM62.5493 42.0866C60.7197 43.9162 60.7197 46.8824 62.5493 48.712L63.9635 47.2977C62.915 46.2493 62.915 44.5493 63.9635 43.5009L62.5493 42.0866ZM62.5493 48.712C64.3788 50.5415 67.345 50.5415 69.1746 48.712L67.7604 47.2977C66.7119 48.3462 65.012 48.3462 63.9635 47.2977L62.5493 48.712ZM69.1746 48.712C71.0041 46.8824 71.0041 43.9162 69.1746 42.0866L67.7604 43.5009C68.8088 44.5493 68.8088 46.2493 67.7604 47.2977L69.1746 48.712ZM69.1746 42.0866C67.345 40.2571 64.3788 40.2571 62.5493 42.0866L63.9635 43.5009C65.012 42.4524 66.7119 42.4524 67.7604 43.5009L69.1746 42.0866ZM65.8062 62.2797L59.9437 68.1422L61.3579 69.5564L67.2204 63.6939L65.8062 62.2797ZM58.5141 67.6656L57.7324 62.194L55.7525 62.4768L56.5342 67.9485L58.5141 67.6656ZM65.5234 57.9171L66.0445 61.5649L68.0244 61.282L67.5033 57.6343L65.5234 57.9171ZM59.9437 68.1422C59.4528 68.633 58.6123 68.3528 58.5141 67.6656L56.5342 67.9485C56.8654 70.2672 59.7017 71.2126 61.3579 69.5564L59.9437 68.1422ZM67.2204 63.6939C67.853 63.0613 68.1509 62.1677 68.0244 61.282L66.0445 61.5649C66.082 61.8274 65.9937 62.0922 65.8062 62.2797L67.2204 63.6939ZM47.5673 44.0408L41.7048 49.9033L43.119 51.3176L48.9815 45.4551L47.5673 44.0408ZM43.3127 54.7271L48.7844 55.5087L49.0672 53.5288L43.5955 52.7472L43.3127 54.7271ZM53.6269 43.758L49.9791 43.2369L49.6963 45.2168L53.3441 45.7379L53.6269 43.758ZM41.7048 49.9033C40.0486 51.5596 40.994 54.3958 43.3127 54.7271L43.5955 52.7472C42.9083 52.649 42.6281 51.8084 43.119 51.3176L41.7048 49.9033ZM48.9815 45.4551C49.169 45.2676 49.4338 45.1793 49.6963 45.2168L49.9791 43.2369C49.0935 43.1104 48.1999 43.4082 47.5673 44.0408L48.9815 45.4551Z" fill="#1D1E1C"/>
<defs>
<filter id="filter0_b_3_183" x="13.6621" y="4.16211" width="93.8379" height="93.8379" filterUnits="userSpaceOnUse" color-interpolation-filters="sRGB">
<feFlood flood-opacity="0" result="BackgroundImageFix"/>
<feGaussianBlur in="BackgroundImageFix" stdDeviation="4"/>
<feComposite in2="SourceAlpha" operator="in" result="effect1_backgroundBlur_3_183"/>
<feBlend mode="normal" in="SourceGraphic" in2="effect1_backgroundBlur_3_183" result="shape"/>
</filter>
</defs>
</svg>
