<svg width="26" height="40" viewBox="0 0 26 40" fill="none" xmlns="http://www.w3.org/2000/svg">
<g clip-path="url(#clip0_1_16)">
<path d="M14.1841 18.4827V18.3783C17.8267 17.5416 22.6147 15.2392 22.6147 9.69327C22.6147 4.14736 17.8267 0.956085 9.70849 0.956085H5.70177V1.79405H9.24088C15.0165 1.79405 18.7121 4.67142 18.7121 10.2695C18.7121 15.1341 15.3819 18.2745 9.03262 18.2745H5.70242L3.48272 18.1172V36.0093C3.48272 38.05 3.07914 38.469 1.09033 38.6785V39.0439H5.70177V19.1111H9.60436C16.1619 19.1111 20.7404 22.4597 20.7404 28.7372C20.7404 34.5448 16.8378 38.2073 9.91675 38.2073C9.89153 38.2073 5.70371 38.0982 5.70371 38.157C5.70242 38.6507 5.70177 39.0439 5.70177 39.0439H10.2285C18.5032 39.0439 25.0077 35.1204 25.0077 28.2138C25.0077 21.7268 19.4391 19.0054 14.1835 18.4827H14.1841Z" fill="#A26D43"/>
<path d="M5.70176 0.956085H3.5752V1.79405H5.70176V0.956085Z" fill="#A26D43"/>
<path d="M4.88363 11.0685C5.76388 11.0685 6.44881 10.3687 6.44881 9.46859C6.44881 8.5685 5.76388 7.86865 4.88363 7.86865C4.00338 7.86865 3.31781 8.5685 3.31781 9.46859C3.31781 10.3687 4.00273 11.0685 4.88363 11.0685Z" fill="#A26D43"/>
</g>
<defs>
<clipPath id="clip0_1_16">
<rect width="25.7143" height="40" fill="white"/>
</clipPath>
</defs>
</svg>
